<svg width="400" height="200" viewBox="0 0 400 200" xmlns="http://www.w3.org/2000/svg">
  <!-- Background -->
  <rect width="400" height="200" fill="#1A1A1A"/>
  
  <!-- Grid Lines -->
  <!-- Vertical grid lines -->
  <line x1="20" y1="0" x2="20" y2="200" stroke="#333" stroke-width="1" stroke-dasharray="2,2"/>
  <line x1="40" y1="0" x2="40" y2="200" stroke="#333" stroke-width="1" stroke-dasharray="2,2"/>
  <line x1="60" y1="0" x2="60" y2="200" stroke="#333" stroke-width="1" stroke-dasharray="2,2"/>
  <line x1="80" y1="0" x2="80" y2="200" stroke="#333" stroke-width="1" stroke-dasharray="2,2"/>
  <line x1="100" y1="0" x2="100" y2="200" stroke="#333" stroke-width="1" stroke-dasharray="2,2"/>
  <line x1="120" y1="0" x2="120" y2="200" stroke="#333" stroke-width="1" stroke-dasharray="2,2"/>
  <line x1="140" y1="0" x2="140" y2="200" stroke="#333" stroke-width="1" stroke-dasharray="2,2"/>
  <line x1="160" y1="0" x2="160" y2="200" stroke="#333" stroke-width="1" stroke-dasharray="2,2"/>
  <line x1="180" y1="0" x2="180" y2="200" stroke="#333" stroke-width="1" stroke-dasharray="2,2"/>
  <line x1="200" y1="0" x2="200" y2="200" stroke="#333" stroke-width="1" stroke-dasharray="2,2"/>
  <line x1="220" y1="0" x2="220" y2="200" stroke="#333" stroke-width="1" stroke-dasharray="2,2"/>
  <line x1="240" y1="0" x2="240" y2="200" stroke="#333" stroke-width="1" stroke-dasharray="2,2"/>
  <line x1="260" y1="0" x2="260" y2="200" stroke="#333" stroke-width="1" stroke-dasharray="2,2"/>
  <line x1="280" y1="0" x2="280" y2="200" stroke="#333" stroke-width="1" stroke-dasharray="2,2"/>
  <line x1="300" y1="0" x2="300" y2="200" stroke="#333" stroke-width="1" stroke-dasharray="2,2"/>
  <line x1="320" y1="0" x2="320" y2="200" stroke="#333" stroke-width="1" stroke-dasharray="2,2"/>
  <line x1="340" y1="0" x2="340" y2="200" stroke="#333" stroke-width="1" stroke-dasharray="2,2"/>
  <line x1="360" y1="0" x2="360" y2="200" stroke="#333" stroke-width="1" stroke-dasharray="2,2"/>
  <line x1="380" y1="0" x2="380" y2="200" stroke="#333" stroke-width="1" stroke-dasharray="2,2"/>
  
  <!-- Horizontal grid lines -->
  <line x1="0" y1="40" x2="400" y2="40" stroke="#333" stroke-width="1" stroke-dasharray="2,2"/>
  <line x1="0" y1="80" x2="400" y2="80" stroke="#333" stroke-width="1" stroke-dasharray="2,2"/>
  <line x1="0" y1="120" x2="400" y2="120" stroke="#333" stroke-width="1" stroke-dasharray="2,2"/>
  <line x1="0" y1="160" x2="400" y2="160" stroke="#333" stroke-width="1" stroke-dasharray="2,2"/>
  
  <!-- Grey scenario lines -->
  <path d="M 20 190 L 380 180" stroke="#666" stroke-width="1" fill="none" stroke-linecap="round"/>
  <path d="M 20 190 L 380 170" stroke="#666" stroke-width="1" fill="none" stroke-linecap="round"/>
  <path d="M 20 190 L 380 160" stroke="#666" stroke-width="1" fill="none" stroke-linecap="round"/>
  <path d="M 20 190 L 380 150" stroke="#666" stroke-width="1" fill="none" stroke-linecap="round"/>
  <path d="M 20 190 L 380 140" stroke="#666" stroke-width="1" fill="none" stroke-linecap="round"/>
  <path d="M 20 190 L 380 130" stroke="#666" stroke-width="1" fill="none" stroke-linecap="round"/>
  <path d="M 20 190 L 380 120" stroke="#666" stroke-width="1" fill="none" stroke-linecap="round"/>
  <path d="M 20 190 L 380 110" stroke="#666" stroke-width="1" fill="none" stroke-linecap="round"/>
  
  <!-- Main pink line with dramatic jump -->
  <path d="M 20 190 L 70 190 L 70 40 L 380 6" stroke="#e50f5f" stroke-width="4" fill="none" stroke-linecap="round"/>
  
  <!-- Vertical line from house to x-axis -->
  <line x1="70" y1="40" x2="70" y2="190" stroke="#e50f5f" stroke-width="2"/>
  
  <!-- House icon at jump point -->
  <circle cx="70" cy="40" r="6" fill="#e50f5f"/>
  <text x="70" y="35" text-anchor="middle" fill="white" font-size="12">🏠</text>
  
  <!-- Data point at the end of the pink line -->
  <circle cx="380" cy="6" r="8" fill="#e50f5f" stroke="white" stroke-width="2"/>
  
  <!-- Title -->
  <text x="10" y="25" fill="white" font-size="14" font-weight="bold">Evolução Patrimonial</text>
  
  <!-- Icon in top right -->
  <rect x="360" y="5" width="30" height="20" fill="white" rx="2"/>
  <text x="375" y="18" text-anchor="middle" fill="#e50f5f" font-size="12">📈</text>
</svg> 