<?xml version="1.0" encoding="UTF-8"?>
<svg xmlns="http://www.w3.org/2000/svg" width="512" height="512" viewBox="0 0 512 512">
  <path d="M 113 415 L 113 456 L 400 456 L 400 415 L 395 405 L 381 396 L 132 396 L 122 401 Z  M 202 384 L 311 385 L 289 362 L 281 346 L 278 332 L 257 339 L 235 332 L 232 346 L 224 362 Z  M 64 100 L 66 148 L 82 181 L 108 204 L 152 216 L 195 288 L 253 328 L 284 317 L 318 288 L 361 216 L 393 210 L 420 193 L 449 137 L 447 96 L 390 91 L 378 57 L 135 57 L 122 91 L 74 91 Z  M 423 116 L 423 137 L 414 160 L 397 178 L 383 186 L 371 189 L 370 188 L 382 148 L 387 118 L 389 116 Z  M 90 116 L 124 116 L 126 118 L 130 144 L 143 188 L 142 189 L 130 186 L 122 182 L 111 174 L 102 164 L 92 145 L 89 129 Z  M 203 142 L 240 136 L 256 104 L 273 136 L 310 142 L 284 167 L 289 204 L 258 188 L 224 204 L 229 167 Z " fill="#E50F5E" fill-rule="evenodd"/>
</svg>
