<?xml version="1.0" encoding="UTF-8"?>
<svg xmlns="http://www.w3.org/2000/svg" width="512" height="512" viewBox="0 0 512 512">
  <path d="M 371 183 L 269 277 L 251 280 L 233 263 L 236 244 L 323 155 L 289 157 L 257 176 L 206 154 L 159 167 L 132 199 L 126 243 L 138 274 L 181 320 L 144 357 L 121 357 L 77 403 L 107 403 L 109 434 L 193 332 L 257 394 L 378 269 L 387 220 Z  M 398 114 L 338 115 L 337 124 L 341 128 L 372 129 L 250 251 L 251 263 L 262 263 L 384 141 L 385 172 L 389 176 L 399 174 Z " fill="#E50F5E" fill-rule="evenodd"/>
</svg>
